<svg version="1.1" viewBox="0 0 24 30" xmlns="http://www.w3.org/2000/svg" xmlns:xlink="http://www.w3.org/1999/xlink" overflow="hidden"><g><path d=" M 17 13 C 13.968 13 11.5 15.467 11.5 18.5 C 11.5 21.533 13.968 24 17 24 C 20.032 24 22.5 21.533 22.5 18.5 C 22.5 15.467 20.032 13 17 13 Z M 17 23 C 14.519 23 12.5 20.981 12.5 18.5 C 12.5 16.019 14.519 14 17 14 C 19.481 14 21.5 16.019 21.5 18.5 C 21.5 20.981 19.481 23 17 23 Z" stroke="none" stroke-width="1" stroke-linecap="butt" stroke-dasharray="" stroke-dashoffset="1" fill="#272727" fill-opacity="1"/><path d=" M 16.64 21.15 C 16.55 21.24 16.5 21.37 16.5 21.5 C 16.5 21.63 16.55 21.76 16.649 21.85 C 16.74 21.95 16.87 22 17 22 C 17.13 22 17.26 21.95 17.35 21.85 C 17.45 21.76 17.5 21.63 17.5 21.5 C 17.5 21.37 17.45 21.24 17.35 21.15 C 17.17 20.96 16.84 20.95 16.64 21.15 Z" stroke="none" stroke-width="1" stroke-linecap="butt" stroke-dasharray="" stroke-dashoffset="1" fill="#272727" fill-opacity="1"/><path d=" M 16.998 15 C 15.665 15 14.592 15.8 14.502 16.862 C 14.479 17.137 14.683 17.379 14.958 17.402 C 15.211 17.431 15.476 17.222 15.498 16.946 C 15.542 16.425 16.215 16 16.998 16 C 17.812 16 18.5 16.458 18.5 17 C 18.5 17.487 18.026 17.802 17.009 17.989 L 16.9 18.01 C 16.669 18.059 16.502 18.262 16.502 18.499 L 16.5 19.499 C 16.499 19.775 16.723 20 17 20 C 17.275 20 17.499 19.777 17.5 19.501 L 17.501 18.908 C 18.828 18.596 19.5 17.955 19.5 17 C 19.5 15.897 18.378 15 16.998 15 Z" stroke="none" stroke-width="1" stroke-linecap="butt" stroke-dasharray="" stroke-dashoffset="1" fill="#272727" fill-opacity="1"/><path d=" M 12.5 23 L 3 23 C 2.725 23 2.5 22.776 2.5 22.5 L 2.5 3.5 C 2.5 3.224 2.725 3 3 3 L 5.5 3 L 5.5 3.5 C 5.5 3.776 5.724 4 6 4 L 15 4 C 15.276 4 15.5 3.776 15.5 3.5 L 15.5 3 L 18 3 C 18.275 3 18.5 3.224 18.5 3.5 L 18.5 11.5 C 18.5 11.776 18.724 12 19 12 C 19.276 12 19.5 11.776 19.5 11.5 L 19.5 3.5 C 19.5 2.673 18.827 2 18 2 L 15.408 2 C 15.201 1.419 14.651 1 14 1 L 12.226 1 C 11.872 0.39 11.217 0 10.5 0 C 9.783 0 9.128 0.39 8.774 1 L 7 1 C 6.349 1 5.799 1.419 5.592 2 L 3 2 C 2.173 2 1.5 2.673 1.5 3.5 L 1.5 22.5 C 1.5 23.327 2.173 24 3 24 L 12.5 24 C 12.776 24 13 23.776 13 23.5 C 13 23.224 12.776 23 12.5 23 Z M 7 2 L 9.092 2 C 9.304 2 9.492 1.867 9.562 1.668 C 9.705 1.269 10.082 1 10.5 1 C 10.918 1 11.295 1.269 11.437 1.668 C 11.508 1.867 11.696 2 11.908 2 L 14 2 C 14.275 2 14.5 2.224 14.5 2.5 L 14.5 3 L 6.5 3 L 6.5 2.5 C 6.5 2.224 6.725 2 7 2 Z" stroke="none" stroke-width="1" stroke-linecap="butt" stroke-dasharray="" stroke-dashoffset="1" fill="#272727" fill-opacity="1"/></g><text fill="#272727" fill-opacity="1" font-family="helvetica neue,helvetica,arial-unicode,arial,arial" font-weight="700" font-size="5" x="0" y="39">Created by icon 54</text><text fill="#272727" fill-opacity="1" font-family="helvetica neue,helvetica,arial-unicode,arial,arial" font-weight="700" font-size="5" x="0" y="44">from the Noun Project</text></svg>